<svg width="2268" height="2494" viewBox="0 0 2268 2494" fill="none" xmlns="http://www.w3.org/2000/svg">
<path d="M467.901 0.00260112C412.985 0.151515 353.663 7.17165 301.436 26.103C-7.02064 137.912 43.4238 486.93 80.8166 640.349C89.4266 675.675 109.906 733.35 139.912 804.978C78.0145 937.158 45.8783 1081.31 45.7709 1227.26C45.8796 1355.97 70.8969 1483.45 119.443 1602.65C102.607 1644.08 85.8094 1687.61 68.2515 1734.37C-51.067 2052.16 -15.8678 2374 189.066 2474.29C393.999 2574.58 764.49 2240.2 764.49 2240.2C764.49 2240.2 387.684 2475.97 231.221 2309.55C168.031 2242.33 191.652 2064.97 248.935 1880.06L248.037 1879.08C253.228 1863.74 258.59 1848.17 264.189 1832.31C351.64 1584.7 471.738 1379.27 605.29 1209.37C390.413 869.383 324.138 576.04 317.282 543.708C317.213 543.778 317.143 543.847 317.074 543.916C261.056 266.182 326.297 120.869 456.313 65.3477C647.286 -16.2066 933.032 204.397 933.032 204.397C933.032 204.397 809.337 102.547 764.152 78.733C715.814 53.2579 642.915 20.769 582.635 9.76803C550.665 3.93373 510.613 -0.111919 467.901 0.00260112ZM1854.79 180.172C1756.77 181.049 1663.48 204.448 1602.26 223.623C1564.06 235.587 1499.91 263.537 1420.45 303.883C1300.71 254.962 1172.6 229.796 1043.25 229.788C787.349 229.981 541.306 328.519 356.013 505.023C406.025 767.384 504.806 992.542 626.072 1183.26C1076.61 628.081 1664.96 467.467 1683.57 462.497C1683.35 462.295 1683.12 462.093 1682.9 461.891C1976.12 375.363 2134.13 430.466 2200.27 561.292C2293.96 746.614 2092.21 1045.99 2092.21 1045.99C2092.21 1045.99 2185.88 915.985 2206.73 869.359C2229.04 819.481 2256.76 744.63 2263.85 683.766C2272.45 609.985 2269.01 494.695 2229.44 404.208C2151.39 225.72 1998.04 178.89 1854.79 180.172ZM1723.22 497.96C1220.85 627.275 875.766 929.83 649.483 1219.23C1012.79 1765.11 1554.76 2016.92 1615.07 2043.72C1746.4 1951.84 1853.65 1829.67 1927.75 1687.55C2001.84 1545.43 2040.6 1387.54 2040.74 1227.26C2040.67 1090.42 2012.44 955.059 1957.82 829.593C1903.19 704.127 1823.34 591.242 1723.22 497.96ZM628.904 1245.93C397.924 1550.11 298.644 1830.43 284.242 1873.32C377.775 1983.35 494.085 2071.76 625.133 2132.44C756.18 2193.11 898.84 2224.61 1043.25 2224.75C1135.46 2224.66 1227.21 2211.78 1315.88 2186.48C1369.5 2213.5 1426.55 2240.08 1489.59 2268.51C1799.02 2408.06 2122.46 2393.67 2235.75 2195.62C2349.04 1997.57 2039.22 1606.31 2039.22 1606.31C2039.22 1606.31 2250.22 1997.52 2074.06 2142.94C1993.82 2209.17 1780.88 2156.18 1577.21 2069.54C1577.48 2069.35 1577.76 2069.16 1578.03 2068.97C1117.74 1852.74 819.296 1535.45 628.904 1245.93Z" fill="#2A7FFF"/>
</svg>
