<svg width="700" height="700" viewBox="0 0 700 700" fill="none" xmlns="http://www.w3.org/2000/svg">
<rect width="700" height="700" rx="100" fill="url(#paint0_linear_13_180)"/>
<g clip-path="url(#clip0_13_180)">
<path d="M177.534 177L522.602 522.068V522.068C427.314 617.356 272.822 617.356 177.534 522.068V522.068C82.2463 426.78 82.2463 272.288 177.534 177V177Z" fill="white"/>
<path d="M589.659 355.5C589.659 380.629 542.788 450.5 517.659 450.5C492.53 450.5 498.659 380.629 498.659 355.5C498.659 330.371 519.03 310 544.159 310C569.288 310 589.659 330.371 589.659 355.5Z" fill="white"/>
<circle cx="349.429" cy="349.759" r="110" transform="rotate(48.3973 349.429 349.759)" fill="white" stroke="url(#paint1_linear_13_180)" stroke-width="80"/>
<path d="M415 177C415 202.129 318.629 207 293.5 207C268.371 207 248 186.629 248 161.5C248 136.371 268.371 116 293.5 116C318.629 116 415 151.871 415 177Z" fill="white"/>
<path d="M523 207.5C523 232.629 521.129 321.5 496 321.5C470.871 321.5 432 232.629 432 207.5C432 182.371 452.371 162 477.5 162C502.629 162 523 182.371 523 207.5Z" fill="white"/>
</g>
<defs>
<linearGradient id="paint0_linear_13_180" x1="22" y1="31.5" x2="667" y2="680" gradientUnits="userSpaceOnUse">
<stop stop-color="#2319E8"/>
<stop offset="1" stop-color="#278FE5"/>
</linearGradient>
<linearGradient id="paint1_linear_13_180" x1="199.429" y1="349.759" x2="499.429" y2="349.759" gradientUnits="userSpaceOnUse">
<stop stop-color="#277FE6"/>
<stop offset="1" stop-color="#2E7CD8"/>
</linearGradient>
<clipPath id="clip0_13_180">
<rect width="488" height="488" fill="white" transform="translate(106 106)"/>
</clipPath>
</defs>
</svg>
